Coordinates
version=1
nRows=22
nColumns=24
inDegrees=yes

Units are S.I. units (second, meters, Newtons, ...)
Angles are in degrees.

endheader
time	pelvis_tilt	pelvis_list	pelvis_rotation	pelvis_tx	pelvis_ty	pelvis_tz	hip_flexion_r	hip_adduction_r	hip_rotation_r	knee_angle_r	ankle_angle_r	subtalar_angle_r	mtp_angle_r	hip_flexion_l	hip_adduction_l	hip_rotation_l	knee_angle_l	ankle_angle_l	subtalar_angle_l	mtp_angle_l	lumbar_extension	lumbar_bending	lumbar_rotation
      3.36500000	     -9.69032428	     -4.43657207	      4.21433791	     -1.84132978	     -0.04770514	     -0.33930164	     38.61289334	      2.71059421	     -4.99700299	    -15.58120451	      0.77425652	      8.15258691	     14.97051876	     -4.64365855	     -1.58575512	      8.33271282	    -20.64224863	     14.85798013	     16.30444742	     15.77867798	      9.74467528	      0.91270879	    -15.98095935
      3.37000000	     -9.67894145	     -4.70242194	      4.48471915	     -1.83374747	     -0.04855806	     -0.33926900	     38.67046492	      2.83831374	     -5.42502817	    -16.45168241	      0.27382958	      8.00575457	     15.11021440	     -4.68869729	     -2.07651018	      8.03594618	    -21.42969792	     14.53291238	     17.59933243	     16.54151001	      9.84951603	      1.19342329	    -16.30473370
      3.37500000	     -9.62056727	     -4.99858970	      4.52788659	     -1.82602866	     -0.04932667	     -0.33892304	     38.66424770	      3.15870703	     -5.62072089	    -17.27284967	     -0.52423437	      7.61086389	     15.49066543	     -4.79325892	     -2.64465734	      7.28111609	    -22.21626916	     14.08245921	     19.13713978	     17.64116193	      9.91239826	      1.56355390	    -16.30269361
      3.38000000	     -9.61547015	     -5.32392577	      4.67348877	     -1.81834455	     -0.05001328	     -0.33871090	     38.71147792	      3.42376779	     -5.94480680	    -18.10585102	     -1.40293278	      7.15963391	     15.75552900	     -4.77717050	     -3.25164318	      6.68674483	    -23.06708974	     13.51503868	     20.67486146	     18.72035153	     10.03274026	      1.93968618	    -16.45869177
      3.38500000	     -9.63306764	     -5.62925329	      4.88176008	     -1.81077741	     -0.05061409	     -0.33855352	     38.79583736	      3.62565037	     -6.26926459	    -18.97587754	     -2.30395591	      6.63686665	     15.83666859	     -4.65831557	     -3.85652883	      6.15440745	    -24.00961308	     12.84543329	     22.34296598	     19.77821863	     10.15929345	      2.27685154	    -16.69797746
      3.39000000	     -9.60655927	     -5.95191675	      4.82853894	     -1.80305499	     -0.05109521	     -0.33802425	     38.81911822	      4.04919178	     -6.26725209	    -19.79308049	     -3.43044271	      5.75100209	     15.96954184	     -4.63719284	     -4.50735085	      5.27892692	    -24.87521511	     11.86179201	     23.96890234	     21.40584310	     10.24265437	      2.69143976	    -16.57067356
      3.39500000	     -9.70073840	     -6.30427731	      4.99736735	     -1.79546791	     -0.05160776	     -0.33781085	     39.00547165	      4.29692412	     -6.62168849	    -20.70903436	     -4.31744587	      5.17836449	     15.80001543	     -4.32360279	     -5.19977418	      4.63861583	    -25.96788240	     10.90794764	     25.77788106	     22.56207212	     10.45731780	      3.08004906	    -16.76927441
      3.40000000	     -9.71272934	     -6.64850603	      4.88626004	     -1.78776742	     -0.05195867	     -0.33717502	     39.08220083	      4.79057250	     -6.48929777	    -21.57997800	     -5.34391162	      4.14709242	     15.31735922	     -4.17582410	     -5.90482985	      3.70963347	    -26.92745577	      9.54370127	     27.40440477	     24.49298612	     10.56710349	      3.52584764	    -16.60557258
      3.40500000	     -9.77002471	     -6.95357724	      4.89005363	     -1.78008082	     -0.05226253	     -0.33665171	     39.21046212	      5.15908763	     -6.48434827	    -22.50621181	     -6.09322885	      3.27595954	     14.64011516	     -3.89815970	     -6.58251240	      2.95232809	    -27.96763568	      7.98339671	     29.10880123	     26.34905318	     10.73308516	      3.88703983	    -16.59919065
      3.41000000	     -9.84112379	     -7.27124094	      4.88522522	     -1.77242902	     -0.05254802	     -0.33609972	     39.34870986	      5.54999882	     -6.45183013	    -23.43405215	     -6.71810795	      2.42701248	     13.79972852	     -3.54392461	     -7.28132901	      2.22498343	    -29.09151431	      6.28108795	     30.75917553	     28.17214168	     10.90773463	      4.26059889	    -16.57817201
      3.41500000	     -9.91250554	     -7.57591278	      4.86955292	     -1.76478014	     -0.05279505	     -0.33550766	     39.47568133	      5.94699251	     -6.37680535	    -24.36260087	     -7.16652567	      1.61317266	     12.87522123	     -3.14530037	     -7.97041881	      1.56290082	    -30.26090448	      4.35493572	     32.34682180	     30.00217739	     11.06925610	      4.61805772	    -16.54524622
      3.42000000	     -9.98467949	     -7.86600709	      4.84929860	     -1.75713956	     -0.05302851	     -0.33488435	     39.58141359	      6.34110869	     -6.28176730	    -25.26699590	     -7.43334780	      0.88100945	     11.98187451	     -2.69938207	     -8.64511548	      0.96915008	    -31.48279674	      2.26449548	     33.85279700	     31.75677044	     11.22961988	      4.95456273	    -16.51278191
      3.42500000	    -10.04856138	     -8.13749818	      4.82265541	     -1.74950603	     -0.05324472	     -0.33423386	     39.65022696	      6.73082761	     -6.16204693	    -26.13879114	     -7.50311654	      0.26034460	     11.18073310	     -2.22227724	     -9.29478435	      0.46175495	    -32.74436063	      0.00828711	     35.25797001	     33.41533903	     11.37461027	      5.26863587	    -16.47758939
      3.43000000	    -10.13676711	     -8.44655730	      4.78295063	     -1.74186386	     -0.05351702	     -0.33359014	     39.70768835	      7.15668710	     -6.06992036	    -26.93735101	     -7.43651050	     -0.24701885	     10.65897598	     -1.65595655	     -9.98079790	     -0.01270669	    -34.11577900	     -2.28539948	     36.55442393	     34.68981292	     11.55033437	      5.62330160	    -16.46774913
      3.43500000	    -10.19361875	     -8.71072768	      4.73658558	     -1.73431371	     -0.05373615	     -0.33287937	     39.71004109	      7.55888108	     -5.95238554	    -27.71053271	     -7.22007508	     -0.64902811	     10.25184579	     -1.09309822	    -10.60193298	     -0.34447988	    -35.49236470	     -4.70001138	     37.75130098	     35.86787850	     11.66788400	      5.92449561	    -16.41221432
      3.44000000	    -10.24281261	     -8.95638500	      4.68068951	     -1.72677172	     -0.05392784	     -0.33216532	     39.66071474	      7.95258155	     -5.84541529	    -28.42136685	     -6.84483590	     -0.96031988	      9.98749584	     -0.51054943	    -11.17520328	     -0.55753564	    -36.88750470	     -7.17483845	     38.78111042	     36.82087145	     11.77384047	      6.20714868	    -16.34773987
      3.44500000	    -10.28514103	     -9.19129634	      4.61303973	     -1.71930549	     -0.05410282	     -0.33144790	     39.57106787	      8.34017724	     -5.76003950	    -29.07628467	     -6.36058721	     -1.17416854	      9.87991523	      0.10717459	    -11.71085023	     -0.67839872	    -38.32954793	     -9.61758857	     39.67201586	     37.46514114	     11.85662018	      6.48067553	    -16.26513923
      3.45000000	    -10.32107337	     -9.44068087	      4.51650293	     -1.71182713	     -0.05425855	     -0.33071465	     39.42945183	      8.74811555	     -5.71793020	    -29.65456424	     -5.78149991	     -1.25800774	     10.00185578	      0.74518014	    -12.24053761	     -0.74159557	    -39.82191780	    -11.92283112	     40.47182743	     37.61378525	     11.93825841	      6.77583900	    -16.13831818
      3.45500000	    -10.37310952	     -9.70010549	      4.41726029	     -1.70450927	     -0.05441226	     -0.32997234	     39.27813777	      9.16678661	     -5.68076223	    -30.16870459	     -5.18506152	     -1.34215535	     10.14319645	      1.47147629	    -12.76537152	     -0.77214963	    -41.37863021	    -14.14527795	     41.03789576	     37.68466645	     12.01148139	      7.07621764	    -16.03423945
      3.46000000	    -10.37628763	     -9.96977834	      4.27660774	     -1.69724515	     -0.05449267	     -0.32922644	     39.03317878	      9.61682677	     -5.65273352	    -30.60893984	     -4.52825809	     -1.31619617	     10.40225366	      2.17190413	    -13.28889381	     -0.83028044	    -42.97652721	    -16.17476876	     41.35909983	     37.45176697	     12.01777767	      7.40850484	    -15.88115525
      3.46500000	    -10.41414066	    -10.25887648	      4.13160901	     -1.69002781	     -0.05453361	     -0.32847461	     38.78163759	     10.07897112	     -5.65308364	    -30.96523379	     -3.87224921	     -1.26763792	     10.66931368	      2.95203649	    -13.81199128	     -0.82571139	    -44.58533816	    -18.05616490	     41.51721353	     37.17570589	     12.06383615	      7.75424387	    -15.71900687
      3.47000000	    -10.46483217	    -10.56142892	      3.97321309	     -1.68287855	     -0.05453328	     -0.32771063	     38.50806634	     10.55345970	     -5.67716730	    -31.25107827	     -3.21345430	     -1.16859838	     10.95523680	      3.78904950	    -14.33754800	     -0.81160855	    -46.21682694	    -19.73119925	     41.44358416	     36.85343318	     12.11764516	      8.10825491	    -15.53950599
